# File created by Blade
# Date/Time:  Wed Jan 21 16:33:30 2015
# Frame Rate: 120.000 fps
#------------------------------------------------------
:FULLY-SPECIFIED
:DEGREES
1145
root 30.785938 4.243937 -25.844220 -99.471466 111.545056 -9.289447
Spine 58.704070 4.007543 -8.544830
Head 56.057487 -3.151075 -17.196837
LeftShoulder -3.112259 2.027076 6.118585
LeftArm -18.792233 38.218540 -67.736000
LeftForeArm 4.591005 0.000000 90.492410
LeftHand -18.625776 -0.000000 17.091880
LeftHandThumb1 -26.253704 0.000000 33.147579
RightShoulder -8.438478 -27.528476 16.564415
RightArm 15.847912 1.423278 65.117563
RightForeArm -38.508399 -0.000000 97.095150
RightHand -10.315407 -0.000000 3.370269
RightHandThumb1 -24.326973 -0.000000 -32.862282
LeftUpLeg -55.286246 9.052399 -3.271290
LeftLeg 154.385971 -0.000000 -0.000000
LeftFoot -29.222943 27.877029 -7.554000
LeftToeBase 19.278085 -0.000000 -0.000000
RightUpLeg -9.507540 8.016706 -0.175575
RightLeg 14.495511 -0.000000 -0.000000
RightFoot 31.593152 -25.252975 -6.270696
RightToeBase 21.141113 -0.000000 -0.000000
1146
root 30.837644 4.224705 -25.858447 -99.070735 111.618114 -9.417246
Spine 58.897246 4.002212 -8.627386
Head 55.647143 -3.104589 -17.502990
LeftShoulder -3.361168 2.827738 6.628470
LeftArm -20.340987 39.494752 -68.096076
LeftForeArm 6.579476 -0.000000 93.242198
LeftHand -19.038940 -0.000000 16.170660
LeftHandThumb1 -26.253704 0.000000 33.147579
RightShoulder -8.557528 -27.756779 16.384372
RightArm 15.480003 1.295454 65.393820
RightForeArm -43.902877 -0.000000 99.088436
RightHand -11.007402 -0.000000 6.184868
RightHandThumb1 -24.326973 -0.000000 -32.862282
LeftUpLeg -55.915351 9.139026 -3.233447
LeftLeg 154.521442 -0.000000 -0.000000
LeftFoot -29.051829 28.077331 -7.401028
LeftToeBase 19.500444 -0.000000 -0.000000
RightUpLeg -10.209086 8.003073 -0.025720
RightLeg 14.629484 -0.000000 -0.000000
RightFoot 31.663509 -25.198588 -6.141055
RightToeBase 21.023508 -0.000000 -0.000000
1147
root 30.883768 4.210649 -25.876669 -98.650743 111.776470 -9.538423
Spine 59.048831 4.071971 -8.777941
Head 55.333150 -3.111574 -17.644448
LeftShoulder -3.629544 3.480217 7.183599
LeftArm -22.093871 40.731130 -68.691419
LeftForeArm 8.829375 -0.000000 95.831406
LeftHand -19.339557 -0.000000 14.962935
LeftHandThumb1 -26.253704 0.000000 33.147579
RightShoulder -8.801585 -28.193499 16.233657
RightArm 15.289637 1.134052 65.714921
RightForeArm -49.458897 -0.000000 101.059641
RightHand -11.723455 0.000000 9.587643
RightHandThumb1 -24.326973 -0.000000 -32.862282
LeftUpLeg -56.537583 9.235453 -3.329498
LeftLeg 154.620168 -0.000000 -0.000000
LeftFoot -28.863165 28.180971 -7.485681
LeftToeBase 19.116713 -0.000000 -0.000000
RightUpLeg -10.923080 8.011328 0.007392
RightLeg 14.671782 -0.000000 -0.000000
RightFoot 32.015823 -25.183905 -5.963424
RightToeBase 20.580424 -0.000000 -0.000000
1148
root 30.927728 4.195229 -25.898584 -98.106869 111.995561 -9.630884
Spine 59.073615 4.178488 -8.963941
Head 55.076329 -3.302639 -17.858817
LeftShoulder -3.904926 4.228884 7.728956
LeftArm -23.815087 41.934846 -69.352986
LeftForeArm 10.952414 -0.000000 98.298075
LeftHand -19.644280 -0.000000 13.663273
LeftHandThumb1 -26.253704 0.000000 33.147579
RightShoulder -9.123592 -28.681360 16.070424
RightArm 15.024792 0.893593 66.080476
RightForeArm -54.381408 0.000000 102.995450
RightHand -12.003700 0.000000 13.404817
RightHandThumb1 -24.326973 -0.000000 -32.862282
LeftUpLeg -57.204341 9.300332 -3.532411
LeftLeg 154.694143 -0.000000 -0.000000
LeftFoot -28.691142 28.294577 -7.375579
LeftToeBase 18.855847 -0.000000 -0.000000
RightUpLeg -11.770788 7.831623 0.012614
RightLeg 14.790532 -0.000000 -0.000000
RightFoot 32.020161 -25.161474 -5.850311
RightToeBase 20.450969 -0.000000 -0.000000
1149
root 30.969475 4.182696 -25.923500 -97.612252 112.216266 -9.791258
Spine 59.072016 4.318163 -9.118772
Head 54.869174 -3.454004 -18.010781
LeftShoulder -4.236707 4.967231 8.217255
LeftArm -25.422747 42.921834 -69.962837
LeftForeArm 12.343901 -0.000000 100.657314
LeftHand -19.872368 -0.000000 11.709057
LeftHandThumb1 -26.253704 0.000000 33.147579
RightShoulder -9.543514 -29.230742 15.837114
RightArm 14.748668 0.509565 66.458113
RightForeArm -58.787509 -0.000000 104.815322
RightHand -12.256581 -0.000000 17.392259
RightHandThumb1 -24.326973 -0.000000 -32.862282
LeftUpLeg -57.858974 9.376467 -3.773984
LeftLeg 154.751720 -0.000000 -0.000000
LeftFoot -28.626662 28.421977 -7.377587
LeftToeBase 18.757751 -0.000000 -0.000000
RightUpLeg -12.627070 7.758005 0.010665
RightLeg 14.857425 -0.000000 -0.000000
RightFoot 32.067361 -25.178941 -5.816006
RightToeBase 20.629411 -0.000000 -0.000000
1150
root 31.006536 4.171782 -25.952815 -97.151104 112.467980 -10.051382
Spine 58.986321 4.519417 -9.281823
Head 54.694468 -3.671665 -18.059212
LeftShoulder -4.602058 5.719406 8.709225
LeftArm -27.096112 44.045700 -70.790976
LeftForeArm 13.922003 0.000000 102.825560
LeftHand -20.215085 -0.000000 10.180282
LeftHandThumb1 -26.253704 0.000000 33.147579
RightShoulder -10.064207 -29.944219 15.636411
RightArm 14.541438 0.124460 66.787028
RightForeArm -62.300550 -0.000000 106.528506
RightHand -12.488539 -0.000000 20.982664
RightHandThumb1 -24.326973 -0.000000 -32.862282
LeftUpLeg -58.559711 9.529638 -4.153209
LeftLeg 154.801321 -0.000000 -0.000000
LeftFoot -28.646706 28.617572 -7.374478
LeftToeBase 19.607688 -0.000000 -0.000000
RightUpLeg -13.573350 7.636004 -0.021048
RightLeg 14.919346 -0.000000 -0.000000
RightFoot 32.154611 -25.167096 -5.702472
RightToeBase 20.284812 -0.000000 -0.000000
1151
root 31.047076 4.161541 -25.973939 -96.553531 112.688993 -10.187677
Spine 58.875724 4.714156 -9.407281
Head 54.513107 -3.990255 -18.113753
LeftShoulder -4.950398 6.446402 9.227134
LeftArm -28.882206 45.008925 -71.822309
LeftForeArm 15.470143 -0.000000 104.855308
LeftHand -20.853714 0.000000 8.511137
LeftHandThumb1 -26.253704 0.000000 33.147579
RightShoulder -10.652481 -30.644153 15.389464
RightArm 14.194104 -0.359579 67.149573
RightForeArm -64.985895 -0.000000 108.086744
RightHand -12.738319 0.000000 24.085400
RightHandThumb1 -24.326973 -0.000000 -32.862282
LeftUpLeg -59.262325 9.639569 -4.468321
LeftLeg 154.862221 -0.000000 -0.000000
LeftFoot -28.779857 28.631081 -7.603883
LeftToeBase 19.901365 -0.000000 -0.000000
RightUpLeg -14.506668 7.432157 0.023780
RightLeg 14.914817 -0.000000 -0.000000
RightFoot 32.108170 -25.300086 -5.684309
RightToeBase 20.193315 -0.000000 -0.000000
1152
root 31.084261 4.155602 -26.003904 -96.146783 112.910684 -10.465477
Spine 58.834804 4.935075 -9.493498
Head 54.234412 -4.324121 -18.124806
LeftShoulder -5.311652 7.259231 9.733197
LeftArm -30.444025 45.812321 -72.825993
LeftForeArm 15.974544 -0.000000 106.448404
LeftHand -20.751072 -0.000000 6.691813
LeftHandThumb1 -26.253704 0.000000 33.147579
RightShoulder -11.301275 -31.497335 14.980648
RightArm 13.868359 -0.971118 67.514272
RightForeArm -66.936847 -0.000000 109.477519
RightHand -13.061699 -0.000000 26.515413
RightHandThumb1 -24.326973 -0.000000 -32.862282
LeftUpLeg -59.877604 9.794925 -4.850654
LeftLeg 154.937129 -0.000000 -0.000000
LeftFoot -28.625273 28.708014 -7.659585
LeftToeBase 19.510349 -0.000000 -0.000000
RightUpLeg -15.408105 7.240001 0.067779
RightLeg 14.930761 -0.000000 -0.000000
RightFoot 32.079227 -25.237671 -5.781762
RightToeBase 20.040836 -0.000000 -0.000000
1153
root 31.119731 4.149059 -26.028242 -95.692324 113.076409 -10.686656
Spine 58.810981 5.104713 -9.560594
Head 53.894960 -4.653171 -18.165078
LeftShoulder -5.777546 8.004417 10.197201
LeftArm -32.020477 46.657089 -73.980682
LeftForeArm 16.077222 -0.000000 107.892240
LeftHand -21.005914 -0.000000 5.459501
LeftHandThumb1 -26.253704 0.000000 33.147579
RightShoulder -11.885570 -32.189016 14.608276
RightArm 13.297118 -1.452800 67.788883
RightForeArm -68.097149 -0.000000 110.828296
RightHand -13.079749 0.000000 28.867026
RightHandThumb1 -24.326973 -0.000000 -32.862282
LeftUpLeg -60.497781 9.966060 -5.251311
LeftLeg 154.998212 -0.000000 -0.000000
LeftFoot -28.788424 28.943455 -7.980237
LeftToeBase 19.908193 -0.000000 -0.000000
RightUpLeg -16.302262 7.014449 0.195677
RightLeg 14.909392 -0.000000 -0.000000
RightFoot 32.029902 -25.308495 -5.833972
RightToeBase 20.073019 -0.000000 -0.000000
1154
root 31.144340 4.142259 -26.047724 -95.151206 113.285466 -10.911691
Spine 58.715029 5.347813 -9.634458
Head 53.603523 -5.081283 -18.084002
LeftShoulder -6.094070 8.637340 10.616034
LeftArm -33.867241 47.284821 -75.377206
LeftForeArm 16.121789 -0.000000 109.032718
LeftHand -20.964396 -0.000000 4.476402
LeftHandThumb1 -26.253704 0.000000 33.147579
RightShoulder -12.608389 -32.958135 14.481836
RightArm 12.706599 -1.803585 67.892366
RightForeArm -68.583058 -0.000000 112.081433
RightHand -12.893847 -0.000000 30.613389
RightHandThumb1 -24.326973 -0.000000 -32.862282
LeftUpLeg -61.155816 10.107665 -5.697707
LeftLeg 155.009553 -0.000000 -0.000000
LeftFoot -28.930162 29.193506 -7.987065
LeftToeBase 20.301840 -0.000000 -0.000000
RightUpLeg -17.296584 6.737572 0.306562
RightLeg 14.873726 -0.000000 -0.000000
RightFoot 31.943767 -25.273696 -5.937117
RightToeBase 20.076820 -0.000000 -0.000000
1155
root 31.193283 4.140519 -26.069325 -94.784489 113.276265 -10.981014
Spine 58.972795 5.436698 -9.444789
Head 52.912733 -5.476945 -18.030854
LeftShoulder -6.625888 9.324359 11.161024
LeftArm -35.395150 48.098325 -76.924622
LeftForeArm 16.124183 -0.000000 109.878091
LeftHand -20.915584 -0.000000 3.338407
LeftHandThumb1 -26.253704 0.000000 33.147579
RightShoulder -13.313449 -33.737395 13.874767
RightArm 12.037157 -2.374985 68.188033
RightForeArm -68.442510 -0.000000 113.168745
RightHand -12.810614 -0.000000 31.809330
RightHandThumb1 -24.326973 -0.000000 -32.862282
LeftUpLeg -61.592852 10.173740 -5.809255
LeftLeg 155.171623 -0.000000 -0.000000
LeftFoot -28.997786 29.222150 -8.152685
LeftToeBase 20.279336 -0.000000 -0.000000
RightUpLeg -17.961780 6.467440 0.670086
RightLeg 14.849069 -0.000000 -0.000000
RightFoot 31.824876 -25.326320 -6.095194
RightToeBase 19.848281 -0.000000 -0.000000
